<?xml version="1.0" standalone="no"?>
<!DOCTYPE svg PUBLIC "-//W3C//DTD SVG 20010904//EN"
 "http://www.w3.org/TR/2001/REC-SVG-20010904/DTD/svg10.dtd">
<svg version="1.0" xmlns="http://www.w3.org/2000/svg"
 width="700.000000pt" height="701.000000pt" viewBox="0 0 700.000000 701.000000"
 preserveAspectRatio="xMidYMid meet">

<g transform="translate(0.000000,701.000000) scale(0.100000,-0.100000)"
fill="#000000" stroke="none">
<path d="M1750 2495 c0 -853 -3 -1704 -7 -1892 l-6 -343 40 0 c55 0 203 26
285 51 401 119 722 432 853 834 56 174 58 190 62 860 l4 620 -607 700 c-333
385 -610 704 -615 710 -5 5 -9 -617 -9 -1540z"/>
<path d="M6160 2142 c-8 -9 -14 -20 -13 -24 2 -4 -7 -5 -18 -3 -15 3 -19 0
-15 -11 5 -12 2 -12 -15 -3 -11 6 -23 8 -27 5 -3 -3 0 -6 6 -6 7 0 12 -5 12
-11 0 -5 -4 -7 -10 -4 -5 3 -10 1 -10 -6 0 -7 -3 -9 -7 -6 -3 4 -11 -1 -18
-10 -12 -16 -40 -9 -30 8 4 5 -5 4 -19 -2 -14 -7 -23 -17 -19 -22 4 -6 0 -8
-10 -4 -13 5 -17 1 -17 -15 0 -18 -2 -19 -17 -7 -13 11 -15 11 -9 1 5 -9 3
-13 -5 -11 -26 3 -39 -1 -36 -12 1 -6 -5 -14 -13 -16 -12 -4 -12 -3 -1 5 10 7
10 11 1 17 -7 4 -14 -1 -17 -15 -3 -12 -11 -19 -19 -16 -7 3 -16 1 -19 -5 -4
-5 -11 -7 -16 -4 -5 4 -9 -3 -9 -15 0 -12 -4 -18 -10 -15 -5 3 -10 2 -10 -3 0
-6 -6 -9 -12 -8 -7 0 -15 -3 -16 -9 -7 -19 -24 -35 -33 -30 -4 3 -13 -4 -19
-15 -6 -11 -16 -17 -22 -14 -6 4 -9 3 -6 -2 3 -5 -8 -22 -25 -39 -17 -16 -24
-21 -16 -10 13 20 13 20 -8 1 -12 -10 -21 -23 -20 -30 1 -6 -3 -10 -9 -9 -7 1
-11 -5 -10 -15 0 -9 -8 -18 -18 -20 -26 -5 -46 -26 -46 -48 0 -10 -3 -14 -7
-11 -3 4 -12 -1 -20 -11 -10 -11 -12 -12 -8 -2 4 8 -5 3 -18 -12 -14 -15 -28
-24 -31 -21 -3 4 -6 -1 -6 -10 0 -10 -6 -16 -12 -14 -7 1 -12 -3 -11 -10 2 -8
-4 -10 -14 -6 -11 4 -14 3 -9 -5 4 -7 1 -12 -8 -12 -8 0 -20 -9 -26 -20 -6
-11 -29 -32 -50 -45 -22 -14 -39 -31 -37 -38 1 -6 -4 -11 -10 -10 -7 2 -13 -1
-13 -7 0 -5 -19 -19 -42 -31 -23 -12 -55 -35 -70 -51 -16 -17 -28 -27 -28 -23
0 4 -16 -11 -36 -34 -20 -22 -41 -41 -46 -41 -5 0 -16 -7 -25 -15 -8 -8 -19
-12 -25 -9 -7 4 -8 2 -4 -5 4 -6 0 -14 -10 -18 -17 -6 -42 -24 -69 -50 -8 -7
-18 -13 -23 -13 -4 0 -19 -11 -32 -25 -12 -13 -26 -22 -30 -20 -4 3 -13 -1
-19 -9 -9 -11 -9 -15 1 -19 7 -3 1 -6 -13 -6 -15 -1 -30 -8 -33 -17 -9 -23 -8
-24 12 -17 10 3 6 -2 -8 -13 -14 -10 -27 -19 -30 -20 -20 -3 -39 -18 -34 -25
5 -9 -4 -12 -38 -12 -10 0 -15 -3 -12 -8 2 -4 -5 -13 -18 -20 -12 -6 -31 -21
-42 -31 -12 -11 -28 -23 -37 -26 -13 -6 6 -33 92 -132 172 -199 285 -285 474
-361 202 -81 409 -96 659 -45 137 27 274 69 351 108 156 79 330 230 422 368
64 96 93 154 131 260 50 143 62 243 62 521 l0 247 -70 -35 c-38 -19 -76 -33
-83 -30 -13 5 -133 133 -276 294 -56 64 -65 71 -76 56 -11 -15 -13 -15 -21 -1
-8 14 -10 14 -24 0z m-333 -187 c0 -8 -7 -15 -15 -15 -12 0 -12 3 -2 15 7 8
13 15 15 15 1 0 2 -7 2 -15z"/>
<path d="M4690 1045 c-10 -12 -10 -15 4 -15 9 0 16 7 16 15 0 8 -2 15 -4 15
-2 0 -9 -7 -16 -15z"/>
<path d="M4660 1020 c0 -5 5 -10 11 -10 5 0 7 5 4 10 -3 6 -8 10 -11 10 -2 0
-4 -4 -4 -10z"/>
</g>
</svg>
